<svg xmlns="http://www.w3.org/2000/svg" viewBox="-70 -100 2530 830" role="img" aria-label="15T-04 온장 부품 배치"><style>text{font-family:Arial,sans-serif;fill:#243139}.part{cursor:pointer}.part:hover polygon{stroke:#d74a26;stroke-width:4}</style><rect width="2400" height="600" fill="#f8f3e5" stroke="#243139" stroke-width="2"/><rect x="10" y="10" width="2380" height="580" fill="none" stroke="#928778" stroke-dasharray="6 5"/><text x="0" y="-62" font-size="25">15T-04 · 15T · 6부품</text><text x="0" y="-25" font-size="18">왼쪽 위 (X0,Y0) · X: 짧은 변 아래 방향 / Y: 긴 변 오른쪽 방향</text><g class="part" data-part="P02-05" tabindex="0"><title>P02-05 스텝 스툴 / 디딤판 지지대 0 / 블랭크 45×420 mm / X514 Y10 / 재단 보류</title><rect x="10" y="514" width="420" height="45" fill="none" stroke="#647079" stroke-width="0.8"/><polygon points="10,559 430,559 430,514 10,514" fill="rgb(213,178,138)" stroke="#243139" stroke-width="1.3"/><text x="220.0" y="541.5" text-anchor="middle" font-size="16">P02-05</text></g><g class="part" data-part="P07-01" tabindex="0"><title>P07-01 로우 체어 01 쿠션 제외 / 좌 측판 / 블랭크 500×465 mm / X10 Y10 / 재단 보류</title><rect x="10" y="10" width="465" height="500" fill="none" stroke="#647079" stroke-width="0.8"/><polygon points="10,510 475,510 475,10 10,10" fill="rgb(147,188,170)" stroke="#243139" stroke-width="1.3"/><text x="242.5" y="256.0" text-anchor="middle" font-size="21" transform="rotate(-90 242.5 260.0)">P07-01</text><text x="242.5" y="279.0" text-anchor="middle" font-size="17" transform="rotate(-90 242.5 260.0)">500 × 465</text></g><g class="part" data-part="P07-02" tabindex="0"><title>P07-02 로우 체어 01 쿠션 제외 / 우 측판 / 블랭크 465×500 mm / X10 Y998 / 재단 보류</title><rect x="998" y="10" width="500" height="465" fill="none" stroke="#647079" stroke-width="0.8"/><polygon points="998,10 998,475 1498,475 1498,10" fill="rgb(147,188,170)" stroke="#243139" stroke-width="1.3"/><text x="1248.0" y="238.5" text-anchor="middle" font-size="21">P07-02</text><text x="1248.0" y="261.5" text-anchor="middle" font-size="17">465 × 500</text></g><g class="part" data-part="P07-03" tabindex="0"><title>P07-03 로우 체어 01 쿠션 제외 / 좌판 / 블랭크 450×438 mm / X10 Y1941 / 재단 보류</title><rect x="1941" y="10" width="438" height="450" fill="none" stroke="#647079" stroke-width="0.8"/><polygon points="1941,460 2379,460 2379,10 1941,10" fill="rgb(147,188,170)" stroke="#243139" stroke-width="1.3"/><text x="2160.0" y="231.0" text-anchor="middle" font-size="21" transform="rotate(-90 2160.0 235.0)">P07-03</text><text x="2160.0" y="254.0" text-anchor="middle" font-size="17" transform="rotate(-90 2160.0 235.0)">450 × 438</text></g><g class="part" data-part="P08-05" tabindex="0"><title>P08-05 로우 체어 02 쿠션 제외 / 후면 하부판 / 블랭크 485×435 mm / X10 Y1502 / 재단 보류</title><rect x="1502" y="10" width="435" height="485" fill="none" stroke="#647079" stroke-width="0.8"/><polygon points="1502,10 1502,495 1937,495 1937,10" fill="rgb(210,163,151)" stroke="#243139" stroke-width="1.3"/><text x="1719.5" y="248.5" text-anchor="middle" font-size="21" transform="rotate(-90 1719.5 252.5)">P08-05</text><text x="1719.5" y="271.5" text-anchor="middle" font-size="17" transform="rotate(-90 1719.5 252.5)">485 × 435</text></g><g class="part" data-part="P09-07" tabindex="0"><title>P09-07 라인 암체어 쿠션 제외 / 좌판 / 블랭크 485×515 mm / X10 Y479 / 재단 보류</title><rect x="479" y="10" width="515" height="485" fill="none" stroke="#647079" stroke-width="0.8"/><polygon points="479,495 994,495 994,10 479,10" fill="rgb(163,160,198)" stroke="#243139" stroke-width="1.3"/><text x="736.5" y="248.5" text-anchor="middle" font-size="21">P09-07</text><text x="736.5" y="271.5" text-anchor="middle" font-size="17">485 × 515</text></g><text x="1200" y="645" text-anchor="middle" font-size="24">2400 mm（Y）</text><text x="-25" y="300" text-anchor="middle" font-size="20" transform="rotate(-90 -25 300)">600 mm（X）</text><text x="0" y="700" font-size="19" fill="#b33528">사진 추정 치수 · 재단 보류 / 톱날 4mm · 가장자리 10mm · 결 방향 제한 없이 90° 회전 허용</text></svg>